<svg width="25" height="26" viewBox="0 0 25 26" fill="none" xmlns="http://www.w3.org/2000/svg">
<path d="M17.0117 22.6062C17.0582 23.8212 16.2994 24.9684 15.0845 25.3617C13.932 25.7355 12.7144 25.3218 12.0159 24.4166C11.9379 24.2886 11.8562 24.1616 11.7698 24.0382C11.6909 23.8926 11.624 23.7368 11.5701 23.5736C11.0937 22.11 11.8952 20.5389 13.3608 20.0641C14.8264 19.5883 16.3997 20.3887 16.8752 21.8522C16.956 22.1026 17.0006 22.3558 17.0108 22.6062H17.0117Z" fill="#F35874"/>
<path d="M17.0131 3.20752C17.001 3.34572 16.9936 3.48669 16.9927 3.62766C16.9722 3.80017 16.9332 3.9736 16.8775 4.14611C16.4103 5.58181 14.89 6.3785 13.4494 5.96114C13.4439 5.95929 13.4364 5.9565 13.4299 5.95557C13.3789 5.93795 13.3287 5.92126 13.2758 5.90456C13.2683 5.90178 13.2609 5.899 13.2535 5.89715C11.8576 5.37963 11.1071 3.85118 11.5715 2.42475C11.643 2.2068 11.7368 2.00276 11.8538 1.81634C11.8557 1.81449 11.8566 1.8117 11.8585 1.80892C11.8873 1.76904 11.9123 1.72823 11.9374 1.68835C12.6228 0.708957 13.8915 0.248939 15.0869 0.635688C16.2404 1.00945 16.9825 2.06304 17.014 3.2066L17.0131 3.20752Z" fill="#66D9EF"/>
<path d="M4.42914 4.74422C5.66533 5.64015 5.94674 7.35686 5.07278 8.59966C5.06349 8.61171 5.05606 8.62377 5.0477 8.63583C5.04027 8.64603 5.03284 8.65623 5.02541 8.66551C4.11337 9.88511 2.38773 10.1485 1.15062 9.25166C0.963006 9.1144 0.796757 8.95951 0.653728 8.78979C-0.153367 7.83451 -0.236027 6.41828 0.533916 5.36191C1.24721 4.38159 2.47689 4.00226 3.57747 4.32594C3.71214 4.38252 3.84867 4.43445 3.98984 4.48361C4.14216 4.55502 4.28983 4.64128 4.43007 4.74422H4.42914Z" fill="#0BCF7D"/>
<path d="M5.04737 17.364C5.95291 18.6096 5.67707 20.3504 4.42974 21.2556C4.21334 21.4124 3.98208 21.5348 3.74153 21.621C3.73689 21.6229 3.73131 21.6257 3.72667 21.6266C2.59079 22.0319 1.27753 21.6637 0.53266 20.6389C-0.182487 19.6567 -0.160196 18.3629 0.49551 17.4178C0.586528 17.3139 0.674761 17.2063 0.756492 17.0941L0.765777 17.0848C0.881872 16.9624 1.01097 16.8493 1.15122 16.7482C2.39761 15.8439 4.1409 16.1194 5.0483 17.364H5.04737Z" fill="#9747FF"/>
<path d="M21.9204 10.2823C21.7189 10.235 21.508 10.2109 21.2916 10.2109C19.7499 10.2109 18.5026 11.4583 18.5026 12.9961H18.5007C18.5007 9.72771 16.3859 6.95276 13.4482 5.95946C14.8888 6.37681 16.4091 5.5792 16.8763 4.14442C16.9311 3.97192 16.9701 3.79848 16.9915 3.62598C16.9738 4.36516 17.0797 5.11918 17.3212 5.86114C18.0447 8.08796 19.8196 9.68412 21.9195 10.2814L21.9204 10.2823Z" fill="#5B5B5B"/>
<path d="M21.2911 15.7823C21.4787 15.7823 21.6626 15.7628 21.8418 15.7275C21.1239 15.939 20.431 16.2747 19.793 16.7385C17.8583 18.1426 16.8869 20.3824 17.0122 22.6065H17.0104C17.0002 22.3561 16.9556 22.1029 16.8748 21.8525C16.3983 20.3889 14.8259 19.5885 13.3604 20.0643V20.0625C16.3435 19.097 18.5001 16.2989 18.5001 12.998H18.502C18.502 14.5376 19.7493 15.7832 21.2911 15.7832V15.7823Z" fill="#5B5B5B"/>
<path d="M13.3619 20.0622V20.0641C11.8963 20.5399 11.0948 22.1101 11.5712 23.5736C11.6251 23.7377 11.692 23.8926 11.7709 24.0382C11.3511 23.441 10.8273 22.8993 10.2041 22.4467C8.26575 21.0416 5.82496 20.8107 3.74268 21.6213C3.98323 21.535 4.21449 21.4126 4.43089 21.2559C5.67822 20.3516 5.95499 18.6108 5.04851 17.3643C6.40079 19.2182 8.59174 20.4239 11.065 20.4239C11.8666 20.4239 12.6384 20.2969 13.3619 20.0622Z" fill="#5B5B5B"/>
<path d="M11.8536 1.81348C11.7375 1.9999 11.6427 2.20394 11.5712 2.42189C11.1068 3.84831 11.8582 5.37769 13.2532 5.89428C12.5604 5.68282 11.8266 5.56782 11.0641 5.56782C8.60569 5.56782 6.42682 6.75867 5.07361 8.59503C5.9485 7.35224 5.66616 5.63552 4.42998 4.7396C4.28974 4.63665 4.14206 4.5504 3.98975 4.47899C4.68353 4.7192 5.42747 4.84904 6.20205 4.84904C8.55832 4.84904 10.6397 3.64149 11.8545 1.8144L11.8536 1.81348Z" fill="#5B5B5B"/>
<path d="M5.02491 8.66104C4.14444 9.88064 3.62619 11.3785 3.62619 12.995C3.62619 14.6116 4.1528 16.1363 5.0472 17.3615C4.1398 16.1169 2.39651 15.8414 1.15011 16.7457C1.00987 16.8468 0.8817 16.9599 0.764676 17.0823C1.20677 16.498 1.56062 15.8321 1.79932 15.0976C2.52932 12.8559 2.02036 10.5057 0.651367 8.78532L0.653224 8.78346C0.796253 8.95319 0.962502 9.10807 1.15011 9.24533C2.38722 10.1422 4.11286 9.87878 5.02491 8.65918V8.66104Z" fill="#5B5B5B"/>
<path d="M18.5006 12.9979C19.6244 12.243 20.4966 11.3999 20.1585 10.7535L20.4613 10.338C17.0118 11.6559 15.224 11.323 13.1398 9.91602C12.9894 10.7526 14.7819 12.1651 14.7828 12.9979C14.7828 13.8308 12.9903 15.2443 13.1398 16.0799C15.224 14.6729 17.0118 14.34 20.4613 15.6579L20.1585 15.2424C20.4966 14.595 19.6244 13.752 18.5006 12.9979Z" fill="#5B5B5B"/>
<path d="M22.1283 10.3409C23.2614 10.6952 24.0805 11.7506 24.0805 12.998C24.0805 14.2455 23.2883 15.2638 22.1877 15.6357C22.0716 15.6626 21.9565 15.6942 21.8413 15.7285C21.662 15.7646 21.4791 15.7832 21.2905 15.7832C19.7488 15.7832 18.5015 14.5376 18.5015 12.998C18.5015 11.4585 19.7488 10.2129 21.2905 10.2129C21.5069 10.2129 21.7178 10.237 21.9193 10.2843C21.9862 10.3038 22.054 10.3214 22.1209 10.3381C22.1236 10.3399 22.1264 10.34 22.1283 10.3409Z" fill="#FD971F"/>
<path d="M11.0639 16.7141C13.1183 16.7141 14.7836 15.0511 14.7836 12.9996C14.7836 10.9482 13.1183 9.28516 11.0639 9.28516C9.0096 9.28516 7.34424 10.9482 7.34424 12.9996C7.34424 15.0511 9.0096 16.7141 11.0639 16.7141Z" fill="#4B81FF"/>
</svg>
